<svg width="108" height="108" viewBox="0 0 108 108" fill="none" xmlns="http://www.w3.org/2000/svg">
<g clip-path="url(#clip0_16_367)">
<path d="M53.1371 90.5208C49.4504 90.5208 46.4943 93.4768 46.4943 97.1636C46.4943 98.9253 47.1942 100.615 48.44 101.861C49.6857 103.106 51.3753 103.806 53.1371 103.806C54.8988 103.806 56.5885 103.106 57.8342 101.861C59.08 100.615 59.7798 98.9253 59.7798 97.1636C59.7798 93.4768 56.7906 90.5208 53.1371 90.5208ZM-0.00482178 37.3789V44.0216H6.63792L18.5948 69.2308L14.0778 77.3682C13.5796 78.2982 13.2807 79.3942 13.2807 80.5567C13.2807 82.3185 13.9805 84.0081 15.2263 85.2538C16.472 86.4996 18.1616 87.1994 19.9234 87.1994H59.7798V80.5567H21.3184C21.0981 80.5567 20.8869 80.4692 20.7312 80.3135C20.5755 80.1578 20.488 79.9466 20.488 79.7264C20.488 79.5603 20.5212 79.4274 20.5877 79.3278L23.5769 73.914H48.3211C50.8121 73.914 53.0042 72.519 54.1335 70.493L66.024 49.0037C66.2565 48.4723 66.4226 47.9076 66.4226 47.343C66.4226 46.4621 66.0726 45.6173 65.4498 44.9945C64.8269 44.3716 63.9821 44.0216 63.1012 44.0216H13.9781L10.8561 37.3789H-0.00482178ZM19.9234 90.5208C16.2367 90.5208 13.2807 93.4768 13.2807 97.1636C13.2807 98.9253 13.9805 100.615 15.2263 101.861C16.472 103.106 18.1616 103.806 19.9234 103.806C21.6852 103.806 23.3748 103.106 24.6205 101.861C25.8663 100.615 26.5661 98.9253 26.5661 97.1636C26.5661 93.4768 23.5769 90.5208 19.9234 90.5208Z" fill="white"/>
</g>
<circle cx="81.3677" cy="27.7423" r="26.5211" fill="#FF0101"/>
<path d="M76.1615 21.7194C76.1615 23.6336 76.6796 25.1089 77.7159 26.1451C78.7522 27.1814 80.1914 27.6995 82.0337 27.6995C83.0268 27.6995 83.9047 27.5412 84.6675 27.2246C85.4303 26.8936 86.0708 26.4618 86.5889 25.9293C87.1215 25.3823 87.5245 24.7563 87.7979 24.051C88.0714 23.3314 88.2081 22.583 88.2081 21.8058C88.2081 20.8703 88.057 20.0283 87.7547 19.2799C87.4669 18.5171 87.0567 17.8766 86.5242 17.3585C85.9917 16.8259 85.3584 16.4229 84.6244 16.1495C83.9047 15.8616 83.1059 15.7177 82.228 15.7177C81.3213 15.7177 80.4937 15.8688 79.7453 16.1711C78.9969 16.4589 78.3564 16.8691 77.8239 17.4016C77.2913 17.9342 76.8811 18.5674 76.5933 19.3015C76.3054 20.0355 76.1615 20.8415 76.1615 21.7194ZM84.6675 31.3049C85.2288 30.5709 85.7542 29.8512 86.2435 29.146C85.4663 29.7361 84.5956 30.1823 83.6313 30.4845C82.6814 30.7868 81.6667 30.9379 80.5872 30.9379C79.4502 30.9379 78.3564 30.7436 77.3057 30.355C76.2695 29.9664 75.3483 29.3979 74.5423 28.6495C73.7508 27.8866 73.1175 26.9511 72.6425 25.8429C72.1676 24.7347 71.9301 23.4609 71.9301 22.0217C71.9301 20.6688 72.182 19.395 72.6857 18.2004C73.1894 17.0058 73.8947 15.9696 74.8014 15.0916C75.7225 14.1993 76.8164 13.5012 78.0829 12.9975C79.3639 12.4794 80.7671 12.2203 82.2928 12.2203C83.804 12.2203 85.1713 12.465 86.3946 12.9543C87.6324 13.4437 88.6831 14.1345 89.5466 15.0269C90.4102 15.9048 91.0794 16.9627 91.5544 18.2004C92.0294 19.4382 92.2668 20.7983 92.2668 22.2807C92.2668 23.1875 92.1805 24.051 92.0078 24.8714C91.8494 25.6918 91.612 26.4906 91.2953 27.2678C90.9931 28.045 90.6189 28.815 90.1727 29.5778C89.7409 30.3262 89.2444 31.0962 88.6831 31.8878L81.2349 42.5743C81.0334 42.8621 80.7384 43.0996 80.3498 43.2867C79.9755 43.4738 79.5438 43.5674 79.0544 43.5674H75.19L84.6675 31.3049Z" fill="white"/>
<defs>
<clipPath id="clip0_16_367">
<rect width="79.7129" height="79.7129" fill="white" transform="translate(-0.00482178 27.4146)"/>
</clipPath>
</defs>
</svg>
